STARTFONT 2.1
FONT -FontForge-Zelda DX TT (BRK)-Book-R-Normal--11-110-72-72-P-63-ISO10646-1
SIZE 11 72 72
FONTBOUNDINGBOX 7 8 0 -1
COMMENT "Generated by fontforge, http://fontforge.sourceforge.net"
COMMENT "NIGMA FONTS   [e-mail]  kentpw@norwich.net"
STARTPROPERTIES 39
FOUNDRY "FontForge"
FAMILY_NAME "Zelda DX TT (BRK)"
WEIGHT_NAME "Book"
SLANT "R"
SETWIDTH_NAME "Normal"
ADD_STYLE_NAME ""
PIXEL_SIZE 11
POINT_SIZE 110
RESOLUTION_X 72
RESOLUTION_Y 72
SPACING "P"
AVERAGE_WIDTH 63
CHARSET_REGISTRY "ISO10646"
CHARSET_ENCODING "1"
FONTNAME_REGISTRY ""
CHARSET_COLLECTIONS "ISO10646-1"
FONT_NAME "ZeldaDXTT-BRK-"
FACE_NAME "Zelda DX TT -BRK-"
COPYRIGHT "NIGMA FONTS   [e-mail]  kentpw@norwich.net"
FONT_VERSION "3.31"
FONT_ASCENT 9
FONT_DESCENT 2
UNDERLINE_POSITION -1
UNDERLINE_THICKNESS 1
X_HEIGHT 4
CAP_HEIGHT 6
RAW_ASCENT 800
RAW_DESCENT 200
NORM_SPACE 8
RELATIVE_WEIGHT 40
RELATIVE_SETWIDTH 50
SUPERSCRIPT_X 0
SUPERSCRIPT_Y 1
SUPERSCRIPT_SIZE 1
SUBSCRIPT_X 0
SUBSCRIPT_Y 1
SUBSCRIPT_SIZE 1
AVG_LOWERCASE_WIDTH 58
AVG_UPPERCASE_WIDTH 77
ENDPROPERTIES
CHARS 95
STARTCHAR space
ENCODING 32
SWIDTH 696 0
DWIDTH 8 0
BBX 1 1 0 0
BITMAP
00
ENDCHAR
STARTCHAR exclam
ENCODING 33
SWIDTH 696 0
DWIDTH 4 0
BBX 3 7 0 0
BITMAP
60
60
60
40
40
00
C0
ENDCHAR
STARTCHAR quotedbl
ENCODING 34
SWIDTH 696 0
DWIDTH 6 0
BBX 5 3 0 4
BITMAP
D8
48
90
ENDCHAR
STARTCHAR numbersign
ENCODING 35
SWIDTH 696 0
DWIDTH 8 0
BBX 7 7 0 0
BITMAP
14
14
7E
28
FC
50
50
ENDCHAR
STARTCHAR dollar
ENCODING 36
SWIDTH 696 0
DWIDTH 8 0
BBX 7 7 0 0
BITMAP
3C
4A
50
38
14
A4
78
ENDCHAR
STARTCHAR percent
ENCODING 37
SWIDTH 696 0
DWIDTH 7 0
BBX 6 6 0 0
BITMAP
C8
D0
10
20
2C
4C
ENDCHAR
STARTCHAR ampersand
ENCODING 38
SWIDTH 696 0
DWIDTH 8 0
BBX 7 8 0 -1
BITMAP
10
28
28
30
66
98
8C
72
ENDCHAR
STARTCHAR quotesingle
ENCODING 39
SWIDTH 696 0
DWIDTH 3 0
BBX 2 3 0 4
BITMAP
C0
40
80
ENDCHAR
STARTCHAR parenleft
ENCODING 40
SWIDTH 696 0
DWIDTH 5 0
BBX 4 8 0 -1
BITMAP
30
40
80
80
80
80
40
30
ENDCHAR
STARTCHAR parenright
ENCODING 41
SWIDTH 696 0
DWIDTH 5 0
BBX 4 8 0 -1
BITMAP
C0
20
10
10
10
10
20
C0
ENDCHAR
STARTCHAR asterisk
ENCODING 42
SWIDTH 696 0
DWIDTH 6 0
BBX 5 3 0 4
BITMAP
A8
70
A8
ENDCHAR
STARTCHAR plus
ENCODING 43
SWIDTH 696 0
DWIDTH 6 0
BBX 5 5 0 0
BITMAP
20
20
F8
20
20
ENDCHAR
STARTCHAR comma
ENCODING 44
SWIDTH 696 0
DWIDTH 3 0
BBX 2 3 0 -1
BITMAP
C0
40
80
ENDCHAR
STARTCHAR minus
ENCODING 45
SWIDTH 696 0
DWIDTH 6 0
BBX 5 1 0 2
BITMAP
F8
ENDCHAR
STARTCHAR period
ENCODING 46
SWIDTH 696 0
DWIDTH 3 0
BBX 2 2 0 0
BITMAP
C0
C0
ENDCHAR
STARTCHAR slash
ENCODING 47
SWIDTH 696 0
DWIDTH 5 0
BBX 4 8 0 -1
BITMAP
10
10
20
20
40
40
80
80
ENDCHAR
STARTCHAR zero
ENCODING 48
SWIDTH 696 0
DWIDTH 6 0
BBX 5 6 0 0
BITMAP
38
48
48
90
90
60
ENDCHAR
STARTCHAR one
ENCODING 49
SWIDTH 696 0
DWIDTH 4 0
BBX 3 6 0 0
BITMAP
20
20
40
40
80
80
ENDCHAR
STARTCHAR two
ENCODING 50
SWIDTH 696 0
DWIDTH 7 0
BBX 6 6 0 0
BITMAP
38
4C
08
10
20
F8
ENDCHAR
STARTCHAR three
ENCODING 51
SWIDTH 696 0
DWIDTH 7 0
BBX 6 6 0 0
BITMAP
38
4C
18
08
88
70
ENDCHAR
STARTCHAR four
ENCODING 52
SWIDTH 696 0
DWIDTH 7 0
BBX 6 6 0 0
BITMAP
08
10
20
48
FC
10
ENDCHAR
STARTCHAR five
ENCODING 53
SWIDTH 696 0
DWIDTH 7 0
BBX 6 6 0 0
BITMAP
3C
20
70
08
08
F0
ENDCHAR
STARTCHAR six
ENCODING 54
SWIDTH 696 0
DWIDTH 6 0
BBX 5 6 0 0
BITMAP
08
10
30
48
C8
70
ENDCHAR
STARTCHAR seven
ENCODING 55
SWIDTH 696 0
DWIDTH 6 0
BBX 5 6 0 0
BITMAP
F8
10
20
20
40
40
ENDCHAR
STARTCHAR eight
ENCODING 56
SWIDTH 696 0
DWIDTH 7 0
BBX 6 6 0 0
BITMAP
3C
48
30
48
88
70
ENDCHAR
STARTCHAR nine
ENCODING 57
SWIDTH 696 0
DWIDTH 6 0
BBX 5 6 0 0
BITMAP
70
98
90
60
40
80
ENDCHAR
STARTCHAR colon
ENCODING 58
SWIDTH 696 0
DWIDTH 4 0
BBX 3 6 0 0
BITMAP
60
60
00
00
C0
C0
ENDCHAR
STARTCHAR semicolon
ENCODING 59
SWIDTH 696 0
DWIDTH 4 0
BBX 3 7 0 -1
BITMAP
60
60
00
00
C0
40
80
ENDCHAR
STARTCHAR less
ENCODING 60
SWIDTH 696 0
DWIDTH 6 0
BBX 5 5 0 0
BITMAP
18
60
80
60
18
ENDCHAR
STARTCHAR equal
ENCODING 61
SWIDTH 696 0
DWIDTH 6 0
BBX 5 3 0 1
BITMAP
F8
00
F8
ENDCHAR
STARTCHAR greater
ENCODING 62
SWIDTH 696 0
DWIDTH 6 0
BBX 5 5 0 0
BITMAP
C0
30
08
30
C0
ENDCHAR
STARTCHAR question
ENCODING 63
SWIDTH 696 0
DWIDTH 7 0
BBX 6 7 0 0
BITMAP
78
CC
0C
38
60
00
C0
ENDCHAR
STARTCHAR at
ENCODING 64
SWIDTH 696 0
DWIDTH 8 0
BBX 7 8 0 -1
BITMAP
3C
42
4E
92
94
9C
80
78
ENDCHAR
STARTCHAR A
ENCODING 65
SWIDTH 696 0
DWIDTH 8 0
BBX 7 7 0 0
BITMAP
02
06
0A
12
3E
42
82
ENDCHAR
STARTCHAR B
ENCODING 66
SWIDTH 696 0
DWIDTH 8 0
BBX 7 7 0 0
BITMAP
3C
22
22
7C
44
84
F8
ENDCHAR
STARTCHAR C
ENCODING 67
SWIDTH 696 0
DWIDTH 8 0
BBX 7 7 0 0
BITMAP
1C
22
40
40
80
84
78
ENDCHAR
STARTCHAR D
ENCODING 68
SWIDTH 696 0
DWIDTH 8 0
BBX 7 7 0 0
BITMAP
3C
22
22
42
42
84
F8
ENDCHAR
STARTCHAR E
ENCODING 69
SWIDTH 696 0
DWIDTH 8 0
BBX 7 7 0 0
BITMAP
3E
20
20
7C
40
80
FC
ENDCHAR
STARTCHAR F
ENCODING 70
SWIDTH 696 0
DWIDTH 8 0
BBX 7 7 0 0
BITMAP
3E
20
20
7C
40
80
80
ENDCHAR
STARTCHAR G
ENCODING 71
SWIDTH 696 0
DWIDTH 8 0
BBX 7 7 0 0
BITMAP
1C
22
40
40
8E
84
78
ENDCHAR
STARTCHAR H
ENCODING 72
SWIDTH 696 0
DWIDTH 8 0
BBX 7 7 0 0
BITMAP
22
22
44
7C
44
88
88
ENDCHAR
STARTCHAR I
ENCODING 73
SWIDTH 696 0
DWIDTH 6 0
BBX 5 7 0 0
BITMAP
38
10
20
20
40
40
E0
ENDCHAR
STARTCHAR J
ENCODING 74
SWIDTH 696 0
DWIDTH 8 0
BBX 7 7 0 0
BITMAP
02
02
04
04
88
88
70
ENDCHAR
STARTCHAR K
ENCODING 75
SWIDTH 696 0
DWIDTH 7 0
BBX 6 7 0 0
BITMAP
24
28
30
60
60
90
88
ENDCHAR
STARTCHAR L
ENCODING 76
SWIDTH 696 0
DWIDTH 6 0
BBX 5 7 0 0
BITMAP
20
20
40
40
40
80
F8
ENDCHAR
STARTCHAR M
ENCODING 77
SWIDTH 696 0
DWIDTH 8 0
BBX 7 7 0 0
BITMAP
12
36
3A
52
44
84
84
ENDCHAR
STARTCHAR N
ENCODING 78
SWIDTH 696 0
DWIDTH 8 0
BBX 7 7 0 0
BITMAP
22
22
72
54
4C
84
84
ENDCHAR
STARTCHAR O
ENCODING 79
SWIDTH 696 0
DWIDTH 8 0
BBX 7 7 0 0
BITMAP
3C
42
42
82
84
84
78
ENDCHAR
STARTCHAR P
ENCODING 80
SWIDTH 696 0
DWIDTH 8 0
BBX 7 7 0 0
BITMAP
3C
22
42
7C
40
80
80
ENDCHAR
STARTCHAR Q
ENCODING 81
SWIDTH 696 0
DWIDTH 8 0
BBX 7 7 0 0
BITMAP
3C
42
42
82
9C
84
7A
ENDCHAR
STARTCHAR R
ENCODING 82
SWIDTH 696 0
DWIDTH 8 0
BBX 7 7 0 0
BITMAP
3C
22
42
7C
48
88
88
ENDCHAR
STARTCHAR S
ENCODING 83
SWIDTH 696 0
DWIDTH 8 0
BBX 7 7 0 0
BITMAP
3C
42
40
38
04
84
78
ENDCHAR
STARTCHAR T
ENCODING 84
SWIDTH 696 0
DWIDTH 7 0
BBX 6 7 0 0
BITMAP
FC
20
20
40
40
80
80
ENDCHAR
STARTCHAR U
ENCODING 85
SWIDTH 696 0
DWIDTH 8 0
BBX 7 7 0 0
BITMAP
22
22
44
44
88
88
70
ENDCHAR
STARTCHAR V
ENCODING 86
SWIDTH 696 0
DWIDTH 8 0
BBX 7 7 0 0
BITMAP
82
84
88
90
A0
C0
80
ENDCHAR
STARTCHAR W
ENCODING 87
SWIDTH 696 0
DWIDTH 8 0
BBX 7 7 0 0
BITMAP
42
42
44
94
B4
D8
88
ENDCHAR
STARTCHAR X
ENCODING 88
SWIDTH 696 0
DWIDTH 8 0
BBX 7 7 0 0
BITMAP
22
24
18
10
30
48
88
ENDCHAR
STARTCHAR Y
ENCODING 89
SWIDTH 696 0
DWIDTH 7 0
BBX 6 7 0 0
BITMAP
84
98
60
40
40
80
80
ENDCHAR
STARTCHAR Z
ENCODING 90
SWIDTH 696 0
DWIDTH 8 0
BBX 7 7 0 0
BITMAP
7E
04
08
10
20
40
FC
ENDCHAR
STARTCHAR bracketleft
ENCODING 91
SWIDTH 696 0
DWIDTH 7 0
BBX 6 8 0 -1
BITMAP
1C
10
20
20
40
40
80
E0
ENDCHAR
STARTCHAR backslash
ENCODING 92
SWIDTH 696 0
DWIDTH 5 0
BBX 4 8 0 -1
BITMAP
80
80
40
40
20
20
10
10
ENDCHAR
STARTCHAR bracketright
ENCODING 93
SWIDTH 696 0
DWIDTH 7 0
BBX 6 8 0 -1
BITMAP
1C
04
08
08
10
10
20
E0
ENDCHAR
STARTCHAR asciicircum
ENCODING 94
SWIDTH 696 0
DWIDTH 6 0
BBX 3 2 1 5
BITMAP
40
A0
ENDCHAR
STARTCHAR underscore
ENCODING 95
SWIDTH 696 0
DWIDTH 6 0
BBX 5 1 0 -1
BITMAP
F8
ENDCHAR
STARTCHAR grave
ENCODING 96
SWIDTH 696 0
DWIDTH 5 0
BBX 2 2 1 5
BITMAP
80
40
ENDCHAR
STARTCHAR a
ENCODING 97
SWIDTH 696 0
DWIDTH 6 0
BBX 5 5 0 0
BITMAP
30
48
88
90
68
ENDCHAR
STARTCHAR b
ENCODING 98
SWIDTH 696 0
DWIDTH 6 0
BBX 5 7 0 0
BITMAP
20
20
40
70
48
88
F0
ENDCHAR
STARTCHAR c
ENCODING 99
SWIDTH 696 0
DWIDTH 5 0
BBX 4 5 0 0
BITMAP
30
40
80
80
70
ENDCHAR
STARTCHAR d
ENCODING 100
SWIDTH 696 0
DWIDTH 7 0
BBX 6 7 0 0
BITMAP
04
04
08
78
90
90
70
ENDCHAR
STARTCHAR e
ENCODING 101
SWIDTH 696 0
DWIDTH 6 0
BBX 5 5 0 0
BITMAP
30
48
F8
80
70
ENDCHAR
STARTCHAR f
ENCODING 102
SWIDTH 696 0
DWIDTH 7 0
BBX 6 7 0 0
BITMAP
0C
10
FC
20
20
40
40
ENDCHAR
STARTCHAR g
ENCODING 103
SWIDTH 696 0
DWIDTH 6 0
BBX 5 6 0 -1
BITMAP
30
48
48
38
90
E0
ENDCHAR
STARTCHAR h
ENCODING 104
SWIDTH 696 0
DWIDTH 5 0
BBX 4 7 0 0
BITMAP
20
20
40
40
70
90
90
ENDCHAR
STARTCHAR i
ENCODING 105
SWIDTH 696 0
DWIDTH 4 0
BBX 4 7 0 0
BITMAP
30
00
00
40
40
80
80
ENDCHAR
STARTCHAR j
ENCODING 106
SWIDTH 696 0
DWIDTH 6 0
BBX 6 8 0 -1
BITMAP
0C
00
00
08
08
10
90
60
ENDCHAR
STARTCHAR k
ENCODING 107
SWIDTH 696 0
DWIDTH 6 0
BBX 5 7 0 0
BITMAP
20
20
48
50
60
90
88
ENDCHAR
STARTCHAR l
ENCODING 108
SWIDTH 696 0
DWIDTH 4 0
BBX 3 7 0 0
BITMAP
20
20
40
40
40
80
80
ENDCHAR
STARTCHAR m
ENCODING 109
SWIDTH 696 0
DWIDTH 7 0
BBX 6 5 0 0
BITMAP
68
54
54
A8
A8
ENDCHAR
STARTCHAR n
ENCODING 110
SWIDTH 696 0
DWIDTH 6 0
BBX 5 5 0 0
BITMAP
50
68
48
90
90
ENDCHAR
STARTCHAR o
ENCODING 111
SWIDTH 696 0
DWIDTH 6 0
BBX 5 5 0 0
BITMAP
30
48
88
90
60
ENDCHAR
STARTCHAR p
ENCODING 112
SWIDTH 696 0
DWIDTH 6 0
BBX 5 6 0 -1
BITMAP
30
48
48
70
80
80
ENDCHAR
STARTCHAR q
ENCODING 113
SWIDTH 696 0
DWIDTH 6 0
BBX 5 6 0 -1
BITMAP
30
48
88
70
10
20
ENDCHAR
STARTCHAR r
ENCODING 114
SWIDTH 696 0
DWIDTH 5 0
BBX 4 5 0 0
BITMAP
50
60
40
80
80
ENDCHAR
STARTCHAR s
ENCODING 115
SWIDTH 696 0
DWIDTH 6 0
BBX 5 5 0 0
BITMAP
30
48
20
90
60
ENDCHAR
STARTCHAR t
ENCODING 116
SWIDTH 696 0
DWIDTH 5 0
BBX 4 6 0 0
BITMAP
20
F0
40
40
80
80
ENDCHAR
STARTCHAR u
ENCODING 117
SWIDTH 696 0
DWIDTH 6 0
BBX 5 5 0 0
BITMAP
48
48
90
90
68
ENDCHAR
STARTCHAR v
ENCODING 118
SWIDTH 696 0
DWIDTH 6 0
BBX 5 5 0 0
BITMAP
88
90
A0
C0
80
ENDCHAR
STARTCHAR w
ENCODING 119
SWIDTH 696 0
DWIDTH 7 0
BBX 6 5 0 0
BITMAP
54
54
A8
A8
50
ENDCHAR
STARTCHAR x
ENCODING 120
SWIDTH 696 0
DWIDTH 6 0
BBX 5 5 0 0
BITMAP
48
30
20
50
90
ENDCHAR
STARTCHAR y
ENCODING 121
SWIDTH 696 0
DWIDTH 7 0
BBX 6 6 0 -1
BITMAP
44
28
30
20
40
80
ENDCHAR
STARTCHAR z
ENCODING 122
SWIDTH 696 0
DWIDTH 6 0
BBX 5 5 0 0
BITMAP
78
10
20
40
F0
ENDCHAR
STARTCHAR braceleft
ENCODING 123
SWIDTH 696 0
DWIDTH 6 0
BBX 5 8 0 -1
BITMAP
18
20
40
C0
40
40
20
18
ENDCHAR
STARTCHAR bar
ENCODING 124
SWIDTH 696 0
DWIDTH 5 0
BBX 2 8 1 -1
BITMAP
40
40
40
40
80
80
80
80
ENDCHAR
STARTCHAR braceright
ENCODING 125
SWIDTH 696 0
DWIDTH 6 0
BBX 5 8 0 -1
BITMAP
C0
20
10
18
10
10
20
C0
ENDCHAR
STARTCHAR asciitilde
ENCODING 126
SWIDTH 696 0
DWIDTH 5 0
BBX 4 2 0 2
BITMAP
D0
B0
ENDCHAR
ENDFONT
